<svg width="18" height="18" viewBox="0 0 18 18" fill="none" xmlns="http://www.w3.org/2000/svg">
<g clip-path="url(#clip0_8_457)">
<path d="M5.06475 8.88084C4.93307 8.73367 4.74866 8.64437 4.55155 8.63233C4.35444 8.62029 4.16053 8.68648 4.01192 8.81653C3.86331 8.94658 3.77198 9.12999 3.75777 9.32696C3.74356 9.52393 3.8076 9.71855 3.936 9.86859L6.561 12.8686C6.62982 12.9473 6.71433 13.0107 6.80911 13.0548C6.90389 13.0989 7.00684 13.1227 7.11136 13.1247C7.21587 13.1267 7.31965 13.1068 7.41603 13.0663C7.51241 13.0258 7.59926 12.9656 7.671 12.8896L14.046 6.13959C14.1826 5.99488 14.256 5.80185 14.2503 5.60297C14.2445 5.40409 14.16 5.21564 14.0153 5.07909C13.8705 4.94254 13.6775 4.86906 13.4786 4.87483C13.2798 4.88059 13.0913 4.96513 12.9548 5.10984L7.146 11.2598L5.06475 8.88084Z" fill="#FF5C1D"/>
</g>
<defs>
<clipPath id="clip0_8_457">
<rect width="18" height="18" fill="white"/>
</clipPath>
</defs>
</svg>
