<svg width="18" height="18" viewBox="0 0 18 18" fill="none" xmlns="http://www.w3.org/2000/svg">
<g clip-path="url(#clip0_2_122)">
<path d="M7.7628 10.217L9.91166 12.3659C10.1041 12.5583 10.3999 12.6018 10.6395 12.4732L13.2148 11.0907C13.4052 10.9884 13.6354 10.9933 13.8213 11.1038L17.5787 13.3334C17.8468 13.4925 17.9547 13.8252 17.8292 14.1105C17.5081 14.8412 16.9237 16.1803 16.6916 16.7725C16.6428 16.8971 16.57 17.0113 16.4689 17.0989C13.9648 19.2695 8.98265 16.6247 5.16919 12.8112C1.35514 8.99758 -1.28964 4.01545 0.880957 1.51135C0.968681 1.41019 1.08288 1.33748 1.20736 1.28867C1.7993 1.05652 3.13868 0.472084 3.86933 0.15102C4.15463 0.0255578 4.48735 0.133435 4.6464 0.401549L6.87607 4.15889C6.98632 4.34481 6.99126 4.57499 6.88911 4.76546L5.50666 7.34029C5.37803 7.57996 5.4215 7.87573 5.61394 8.06817L7.7628 10.217Z" fill="white"/>
</g>
<defs>
<clipPath id="clip0_2_122">
<rect width="18" height="18" fill="white"/>
</clipPath>
</defs>
</svg>
